HIERARCHY
ROOT Hips
{
	OFFSET 0.000000 0.000000 0.000000 
	CHANNELS 6 Xposition Yposition Zposition Zrotation Yrotation Xrotation
	JOINT LeftUpLeg
	{
		OFFSET 1.363060 -1.794630 0.839290 
		CHANNELS 3 Zrotation Yrotation Xrotation
		JOINT LeftLeg
		{
			OFFSET 2.448110 -6.726130 0.000000 
			CHANNELS 3 Zrotation Yrotation Xrotation
			JOINT LeftFoot
			{
				OFFSET 2.562200 -7.039590 0.000000 
				CHANNELS 3 Zrotation Yrotation Xrotation
				JOINT LeftToeBase
				{
					OFFSET 0.157640 -0.433110 2.322550 
					CHANNELS 3 Zrotation Yrotation Xrotation
					End Site
					{
						OFFSET 0.000000 0.000000 0.000000 
					}
				}
			}
		}
	}
	JOINT RightUpLeg
	{
		OFFSET -1.305520 -1.794630 0.839290 
		CHANNELS 3 Zrotation Yrotation Xrotation
		JOINT RightLeg
		{
			OFFSET -2.542530 -6.985550 0.000000 
			CHANNELS 3 Zrotation Yrotation Xrotation
			JOINT RightFoot
			{
				OFFSET -2.568260 -7.056230 0.000000 
				CHANNELS 3 Zrotation Yrotation Xrotation
				JOINT RightToeBase
				{
					OFFSET -0.164730 -0.452590 2.363150 
					CHANNELS 3 Zrotation Yrotation Xrotation
					End Site
					{
						OFFSET 0.000000 0.000000 0.000000 
					}
				}
			}
		}
	}
	JOINT Spine
	{
		OFFSET 0.028270 2.035590 -0.193380 
		CHANNELS 3 Zrotation Yrotation Xrotation
		JOINT Spine1
		{
			OFFSET 0.056720 2.048850 -0.042750 
			CHANNELS 3 Zrotation Yrotation Xrotation
			JOINT Neck1
			{
				OFFSET -0.054170 1.746240 0.172020 
				CHANNELS 3 Zrotation Yrotation Xrotation
				JOINT Head
				{
					OFFSET 0.104070 1.761360 -0.123970 
					CHANNELS 3 Zrotation Yrotation Xrotation
					End Site
					{
						OFFSET 0.000000 0.000000 0.000000 
					}
				}
			}
			JOINT LeftArm
			{
				OFFSET 3.362410 1.200890 -0.311210 
				CHANNELS 3 Zrotation Yrotation Xrotation
				JOINT LeftForeArm
				{
					OFFSET 4.983000 -0.000000 -0.000000 
					CHANNELS 3 Zrotation Yrotation Xrotation
					JOINT LeftHand
					{
						OFFSET 3.483560 -0.000000 -0.000000 
						CHANNELS 3 Zrotation Yrotation Xrotation
						JOINT LeftHandIndex1
						{
							OFFSET 0.715260 -0.000000 -0.000000 
							CHANNELS 3 Zrotation Yrotation Xrotation
							End Site
							{
								OFFSET 0.000000 0.000000 0.000000 
							}
						}
					}
				}
			}
			JOINT RightArm
			{
				OFFSET -3.136600 1.374050 -0.404650 
				CHANNELS 3 Zrotation Yrotation Xrotation
				JOINT RightForeArm
				{
					OFFSET -5.241900 -0.000000 -0.000000 
					CHANNELS 3 Zrotation Yrotation Xrotation
					JOINT RightHand
					{
						OFFSET -3.444170 -0.000000 -0.000000 
						CHANNELS 3 Zrotation Yrotation Xrotation
						JOINT RightHandIndex1
						{
							OFFSET -0.622530 -0.000000 -0.000000 
							CHANNELS 3 Zrotation Yrotation Xrotation
							End Site
							{
								OFFSET 0.000000 0.000000 0.000000 
							}
						}
					}
				}
			}
		}
	}
}
MOTION
Frames: 10
Frame Time: 0.041667
-1.284125 15.434719 8.049553 -5.829274 40.455455 24.149832 11.655608 -25.108036 -77.926238 8.658516 21.799562 59.149249 2.125658 -6.697912 -3.578628 1.487100 -7.704300 -21.819400 26.612342 15.303022 -58.714698 -11.574794 -22.945289 70.742620 3.389415 -25.346948 -35.980926 -0.809100 -5.740500 16.033300 -8.169386 3.594636 35.579730 -2.893440 1.024484 -34.430122 10.845924 0.593062 -7.007592 1.897400 -0.250800 0.383000 -90.867528 -22.885037 58.119171 151.641503 -36.539591 -111.155609 1.898689 0.037880 17.483834 -7.125000 0.000000 0.000000 77.325511 31.173216 59.190435 -150.318401 36.165789 -110.440349 -0.712503 -0.543069 37.453425 7.125000 0.000000 0.000000 
-1.244203 15.671520 8.113954 -6.264645 40.346764 23.267250 11.000225 -25.004422 -74.968444 7.832598 21.234981 56.617360 2.161535 -6.849010 -2.895043 1.487500 -7.705300 -21.822500 27.604805 14.310232 -56.249240 -10.509180 -22.300136 67.812041 3.578340 -24.902637 -34.806943 -0.819800 -5.777300 16.139500 -8.254225 3.973881 34.783903 -2.956545 1.176552 -34.088407 11.258818 0.616064 -6.775635 1.972400 -0.232300 0.475300 -90.731004 -22.875757 57.984547 151.792538 -36.432109 -111.204506 1.900738 0.045222 17.472306 -7.125000 0.000000 0.000000 76.852035 31.443536 58.824424 -150.280788 36.179856 -110.417670 -0.707650 -0.551662 37.477495 7.125000 0.000000 0.000000 
-1.194196 15.926811 8.177409 -6.472936 40.365852 22.188935 10.103943 -25.322475 -71.549324 6.948467 20.569347 53.850841 2.173590 -6.806002 -2.261380 1.558500 -7.878500 -22.345600 28.432700 12.642182 -53.419074 -9.405718 -21.483940 64.672807 3.824271 -24.558292 -33.551509 -0.808000 -5.736600 16.022100 -8.818515 4.160349 33.795597 -2.899452 1.179580 -33.935084 11.601090 0.725153 -6.182642 1.997100 -0.145400 0.639100 -90.389800 -22.777144 57.771467 151.840093 -36.410813 -111.217918 1.901848 0.042862 17.507017 -7.125000 0.000000 0.000000 76.469165 31.669910 59.002628 -150.158119 36.286714 -110.341086 -0.723212 -0.542098 37.617156 7.125000 0.000000 0.000000 
-1.137674 16.177900 8.248639 -6.856918 40.133748 21.139908 9.204252 -25.233048 -67.982410 6.033340 19.794040 50.869658 2.179776 -6.656149 -1.663012 1.562400 -7.887900 -22.374100 29.218124 11.225449 -50.683783 -8.321635 -20.635284 61.498571 4.058652 -24.155697 -32.196087 -0.787300 -5.664400 15.813700 -8.919434 4.372003 32.577947 -2.912547 1.230758 -33.675862 11.800392 0.764130 -5.352171 2.002100 -0.077900 0.857000 -90.315040 -22.553864 57.750525 151.797246 -36.511716 -111.192612 1.898888 0.036968 17.562057 -7.125000 0.000000 0.000000 76.149595 31.638703 59.250268 -150.122771 36.369590 -110.300507 -0.739812 -0.532894 37.657102 7.125000 0.000000 0.000000 
-1.078001 16.432351 8.320918 -7.268478 40.050648 19.801972 8.250684 -25.308666 -64.173384 5.141173 18.895426 47.812917 2.183151 -6.483899 -0.920185 1.503400 -7.744600 -21.940900 29.923202 9.566220 -47.830068 -7.218963 -19.671849 58.137869 4.323057 -23.780551 -30.715506 -0.708900 -5.381100 14.998800 -7.571106 4.348669 32.956494 -3.504897 1.138219 -33.646461 11.712422 0.693084 -4.199423 1.961600 -0.030700 1.192800 -90.514005 -22.791136 57.797838 151.709508 -36.583501 -111.158486 1.895178 0.039567 17.614510 -7.125000 0.000000 0.000000 75.931322 32.054440 59.208160 -150.055363 36.400365 -110.262422 -0.750382 -0.529624 37.438886 7.125000 0.000000 0.000000 
-1.015282 16.691004 8.396245 -7.516807 39.934938 18.495652 7.219561 -25.517985 -60.158409 4.275882 17.931755 44.714913 2.170454 -6.197695 -0.029363 1.468400 -7.657700 -21.679100 30.470855 7.582442 -44.779118 -6.107684 -18.564453 54.579527 4.603900 -23.405623 -29.125728 -0.625700 -5.061700 14.084600 -7.465314 4.524692 32.232538 -3.563940 1.198064 -33.181286 11.792501 0.527746 -2.648049 1.938800 -0.002900 1.653100 -90.533326 -22.912541 57.971768 151.695503 -36.618462 -111.149428 1.891275 0.048565 17.489564 -7.125000 0.000000 0.000000 75.659094 32.302936 59.068944 -150.009844 36.443126 -110.231247 -0.757416 -0.527984 37.169970 7.125000 0.000000 0.000000 
-0.946784 16.949132 8.476510 -7.749740 39.684822 17.146006 6.184460 -25.712760 -55.906014 3.431789 16.870532 41.506088 2.122487 -5.673717 0.909031 1.480100 -7.686800 -21.766600 30.869876 5.556156 -41.548645 -5.013688 -17.342119 50.867240 4.882578 -22.996691 -27.411600 -0.580000 -4.876800 13.557500 -8.027175 4.935741 31.076045 -3.622269 1.296543 -32.773533 12.203077 0.236033 -1.337903 1.980200 -0.056100 2.002700 -90.385343 -22.907156 58.266705 151.752335 -36.587316 -111.171583 1.888484 0.054524 17.305966 -7.125000 0.000000 0.000000 75.502304 32.139127 58.922096 -150.096000 36.417810 -110.260910 -0.763262 -0.531219 37.081957 7.125000 0.000000 0.000000 
-0.871352 17.201902 8.560346 -7.951148 39.355583 15.753330 5.138824 -26.004383 -51.410577 2.621536 15.698871 38.191059 2.027966 -4.886740 1.853456 1.485500 -7.700200 -21.807200 31.045741 3.554841 -38.235459 -3.973950 -16.047318 47.081704 5.212802 -22.708746 -25.526743 -0.485700 -4.468600 12.399000 -8.712190 5.341605 29.649562 -3.937818 1.382913 -32.245793 15.827779 0.389746 -1.568371 2.972000 -0.010200 1.941200 -90.066182 -22.876782 58.446420 151.819298 -36.525167 -111.205948 1.885864 0.050538 17.285798 -7.125000 0.000000 0.000000 75.462067 31.779000 59.080622 -150.263768 36.359796 -110.321396 -0.765878 -0.544438 37.151304 7.125000 0.000000 0.000000 
-0.791613 17.446687 8.646389 -8.117659 39.045162 14.188579 3.994530 -26.513999 -46.587242 1.867471 14.394300 34.801311 1.893336 -3.944888 2.829764 1.401000 -7.487400 -21.167700 30.960233 1.600689 -34.866399 -3.031660 -14.734357 43.384318 5.519532 -22.446008 -23.670984 -0.375800 -3.937100 10.899800 -8.636756 5.479735 28.812087 -4.107429 1.426507 -31.798635 17.309500 0.250583 -0.292594 3.366300 0.028100 2.287500 -89.783019 -23.035812 58.493478 151.820142 -36.513749 -111.205095 1.886818 0.044639 17.402478 -7.125000 0.000000 0.000000 75.264768 31.829714 59.218064 -150.363418 36.290868 -110.354369 -0.768553 -0.558669 37.168744 7.125000 0.000000 0.000000 
-0.713450 17.680547 8.732851 -8.250549 38.794951 12.577352 2.748758 -27.184137 -41.557955 1.185304 12.991925 31.398714 1.706699 -2.850737 3.794624 1.345600 -7.344200 -20.739100 30.671639 -0.261150 -31.473904 -2.172619 -13.426068 39.776209 5.759119 -22.153575 -22.003406 -0.317400 -3.621300 10.013700 -8.092539 5.507917 27.754528 -4.209923 1.427107 -31.637325 17.405228 -0.145304 1.898834 3.339700 0.025300 2.820600 -89.552157 -23.062736 58.598072 151.838141 -36.519519 -111.209967 1.885265 0.035491 17.668354 -7.125000 0.000000 0.000000 74.872522 31.813790 59.164763 -150.463191 36.230370 -110.387870 -0.775727 -0.567340 37.122889 7.125000 0.000000 0.000000 
